<svg width="24" height="25" viewBox="0 0 24 25" fill="none" xmlns="http://www.w3.org/2000/svg">
<g clip-path="url(#clip0_5_89)">
<path d="M21 6.67993C19.89 6.32993 18.67 6.17993 17.5 6.17993C15.55 6.17993 13.45 6.57993 12 7.67993C10.55 6.57993 8.45 6.17993 6.5 6.17993C4.55 6.17993 2.45 6.57993 1 7.67993V22.3299C1 22.5799 1.25 22.8299 1.5 22.8299C1.6 22.8299 1.65 22.7799 1.75 22.7799C3.1 22.1299 5.05 21.6799 6.5 21.6799C8.45 21.6799 10.55 22.0799 12 23.1799C13.35 22.3299 15.8 21.6799 17.5 21.6799C19.15 21.6799 20.85 21.9799 22.25 22.7299C22.35 22.7799 22.4 22.7799 22.5 22.7799C22.75 22.7799 23 22.5299 23 22.2799V7.67993C22.4 7.22993 21.75 6.92993 21 6.67993ZM21 20.1799C19.9 19.8299 18.7 19.6799 17.5 19.6799C15.8 19.6799 13.35 20.3299 12 21.1799V9.67993C13.35 8.82993 15.8 8.17993 17.5 8.17993C18.7 8.17993 19.9 8.32993 21 8.67993V20.1799Z" fill="url(#paint0_linear_5_89)"/>
<path d="M17.5 12.1799C18.38 12.1799 19.23 12.2699 20 12.4399V10.9199C19.21 10.7699 18.36 10.6799 17.5 10.6799C15.8 10.6799 14.26 10.9699 13 11.5099V13.1699C14.13 12.5299 15.7 12.1799 17.5 12.1799Z" fill="black"/>
<path d="M13 14.17V15.83C14.13 15.19 15.7 14.84 17.5 14.84C18.38 14.84 19.23 14.93 20 15.1V13.58C19.21 13.43 18.36 13.34 17.5 13.34C15.8 13.34 14.26 13.64 13 14.17Z" fill="black"/>
<path d="M17.5 16.0099C15.8 16.0099 14.26 16.2999 13 16.8399V18.4999C14.13 17.8599 15.7 17.5099 17.5 17.5099C18.38 17.5099 19.23 17.5999 20 17.7699V16.2499C19.21 16.0899 18.36 16.0099 17.5 16.0099Z" fill="black"/>
</g>
<defs>
<linearGradient id="paint0_linear_5_89" x1="12" y1="6.17993" x2="12" y2="23.1799" gradientUnits="userSpaceOnUse">
<stop stop-color="#A84BD3"/>
<stop offset="1" stop-color="#7E33B9"/>
</linearGradient>
<clipPath id="clip0_5_89">
<rect width="24" height="24" fill="white" transform="translate(0 0.169922)"/>
</clipPath>
</defs>
</svg>
