<svg width="240" height="41" viewBox="0 0 240 41" fill="none" xmlns="http://www.w3.org/2000/svg">
<path d="M15.752 6.01602V6.97602C14.664 7.00802 13.832 7.13602 13.256 7.36002C12.712 7.55202 12.344 7.93602 12.152 8.51202C11.96 9.05602 11.864 9.92002 11.864 11.104V35.488C11.864 36.48 11.928 37.216 12.056 37.696C12.216 38.176 12.504 38.496 12.92 38.656C13.368 38.816 14.024 38.896 14.888 38.896H17.24C18.328 38.896 19.352 38.64 20.312 38.128C21.272 37.616 22.136 36.896 22.904 35.968C23.672 35.008 24.312 33.872 24.824 32.56C25.336 31.248 25.72 29.792 25.976 28.192H27.08C26.984 29.28 26.936 30.688 26.936 32.416C26.936 33.152 26.952 34.224 26.984 35.632C27.016 37.04 27.112 38.496 27.272 40C25.64 39.936 23.8 39.904 21.752 39.904C19.704 39.872 17.88 39.856 16.28 39.856C15.48 39.856 14.456 39.856 13.208 39.856C11.96 39.856 10.616 39.872 9.17602 39.904C7.73602 39.904 6.28002 39.92 4.80802 39.952C3.33602 39.952 1.94402 39.968 0.632019 40V39.04C1.65602 38.976 2.42402 38.848 2.93602 38.656C3.44802 38.464 3.78402 38.08 3.94402 37.504C4.13602 36.928 4.23202 36.064 4.23202 34.912V11.104C4.23202 9.92002 4.13602 9.05602 3.94402 8.51202C3.78402 7.93602 3.43202 7.55202 2.88802 7.36002C2.37602 7.13602 1.62402 7.00802 0.632019 6.97602V6.01602C1.43202 6.04802 2.50402 6.08002 3.84802 6.11202C5.22402 6.14402 6.68002 6.16002 8.21602 6.16002C9.62402 6.16002 11 6.14402 12.344 6.11202C13.72 6.08002 14.856 6.04802 15.752 6.01602Z" fill="#141414"/>
<path d="M53.3998 14.656V34.768C53.3998 36.208 53.6238 37.28 54.0718 37.984C54.5198 38.656 55.3198 38.992 56.4718 38.992V40C55.4798 39.904 54.4878 39.856 53.4958 39.856C52.1518 39.856 50.9038 39.904 49.7518 40C48.5998 40.096 47.5118 40.272 46.4878 40.528V36.208C45.7198 37.808 44.6478 38.96 43.2718 39.664C41.9278 40.336 40.4238 40.672 38.7598 40.672C37.4158 40.672 36.3278 40.496 35.4958 40.144C34.6638 39.792 34.0078 39.344 33.5278 38.8C32.9838 38.192 32.5998 37.392 32.3758 36.4C32.1518 35.408 32.0398 34.128 32.0398 32.56V20.416C32.0398 18.976 31.8158 17.92 31.3678 17.248C30.9518 16.544 30.1518 16.192 28.9678 16.192V15.184C29.9918 15.28 30.9838 15.328 31.9438 15.328C33.2878 15.328 34.5358 15.28 35.6878 15.184C36.8718 15.056 37.9598 14.88 38.9518 14.656V34.528C38.9518 35.328 39.0158 36.032 39.1438 36.64C39.3038 37.248 39.5918 37.728 40.0078 38.08C40.4238 38.4 41.0318 38.56 41.8318 38.56C42.6958 38.56 43.4638 38.32 44.1358 37.84C44.8398 37.36 45.3998 36.704 45.8158 35.872C46.2638 35.008 46.4878 34.048 46.4878 32.992V20.416C46.4878 18.976 46.2638 17.92 45.8158 17.248C45.3998 16.544 44.5998 16.192 43.4158 16.192V15.184C44.4398 15.28 45.4318 15.328 46.3918 15.328C47.7358 15.328 48.9838 15.28 50.1358 15.184C51.3198 15.056 52.4078 14.88 53.3998 14.656Z" fill="#141414"/>
<path d="M64.8451 2.80002C66.1891 2.80002 67.2451 3.13602 68.0131 3.80802C68.8131 4.44802 69.2131 5.34402 69.2131 6.49602C69.2131 7.64802 68.8131 8.56002 68.0131 9.23202C67.2451 9.87202 66.1891 10.192 64.8451 10.192C63.5011 10.192 62.4291 9.87202 61.6291 9.23202C60.8611 8.56002 60.4771 7.64802 60.4771 6.49602C60.4771 5.34402 60.8611 4.44802 61.6291 3.80802C62.4291 3.13602 63.5011 2.80002 64.8451 2.80002ZM68.5891 14.656V35.536C68.5891 36.88 68.8131 37.792 69.2611 38.272C69.7411 38.752 70.5411 38.992 71.6611 38.992V40C71.0851 39.968 70.1891 39.936 68.9731 39.904C67.7571 39.84 66.5251 39.808 65.2771 39.808C64.0291 39.808 62.7651 39.84 61.4851 39.904C60.2051 39.936 59.2451 39.968 58.6051 40V38.992C59.7251 38.992 60.5091 38.752 60.9571 38.272C61.4371 37.792 61.6771 36.88 61.6771 35.536V20.416C61.6771 18.976 61.4531 17.92 61.0051 17.248C60.5891 16.544 59.7891 16.192 58.6051 16.192V15.184C59.6291 15.28 60.6211 15.328 61.5811 15.328C62.9251 15.328 64.1731 15.28 65.3251 15.184C66.5091 15.056 67.5971 14.88 68.5891 14.656Z" fill="#141414"/>
<path d="M93.9058 14.944L81.9058 39.28H84.4018C85.6498 39.28 86.8178 39.024 87.9058 38.512C89.0258 37.968 89.9538 37.072 90.6898 35.824C91.4578 34.576 91.9218 32.864 92.0818 30.688H93.0898C93.0898 33.024 93.1058 34.944 93.1378 36.448C93.1698 37.92 93.2178 39.168 93.2818 40.192C91.8418 40.128 90.3378 40.08 88.7698 40.048C87.2018 40.016 85.6338 40 84.0658 40C82.4338 40 80.7538 40.016 79.0258 40.048C77.2978 40.112 75.6498 40.176 74.0818 40.24L86.0818 15.904H83.3938C82.1138 15.904 80.9298 16.176 79.8418 16.72C78.7858 17.232 77.9058 18.128 77.2018 19.408C76.5298 20.656 76.0978 22.352 75.9058 24.496H74.8978C74.8978 22.128 74.8818 20.208 74.8498 18.736C74.8178 17.264 74.7698 16.016 74.7058 14.992C76.1778 15.056 77.6978 15.104 79.2658 15.136C80.8338 15.168 82.3858 15.184 83.9218 15.184C85.5858 15.184 87.2658 15.168 88.9618 15.136C90.6898 15.072 92.3378 15.008 93.9058 14.944Z" fill="#141414"/>
<path d="M122.32 5.92002L133.984 35.968C134.432 37.12 134.928 37.92 135.472 38.368C136.048 38.784 136.56 39.008 137.008 39.04V40C136.048 39.936 134.912 39.904 133.6 39.904C132.32 39.872 131.024 39.856 129.712 39.856C128.24 39.856 126.848 39.872 125.536 39.904C124.224 39.904 123.184 39.936 122.416 40V39.04C124.048 38.976 125.072 38.704 125.488 38.224C125.936 37.712 125.84 36.64 125.2 35.008L117.04 12.688L117.904 11.44L110.608 30.448C109.904 32.208 109.472 33.648 109.312 34.768C109.184 35.888 109.264 36.752 109.552 37.36C109.872 37.968 110.368 38.4 111.04 38.656C111.744 38.88 112.576 39.008 113.536 39.04V40C112.48 39.936 111.472 39.904 110.512 39.904C109.552 39.872 108.576 39.856 107.584 39.856C106.88 39.856 106.208 39.872 105.568 39.904C104.96 39.904 104.416 39.936 103.936 40V39.04C104.608 38.912 105.296 38.48 106 37.744C106.704 37.008 107.392 35.76 108.064 34L119.008 5.92002C119.52 5.95202 120.064 5.96802 120.64 5.96802C121.248 5.96802 121.808 5.95202 122.32 5.92002ZM125.68 26.176V27.136H111.376L111.856 26.176H125.68Z" fill="#141414"/>
<path d="M155.68 14.512C157.024 14.512 158.112 14.688 158.944 15.04C159.808 15.36 160.48 15.808 160.96 16.384C161.472 16.992 161.84 17.776 162.064 18.736C162.32 19.696 162.448 20.992 162.448 22.624V35.536C162.448 36.88 162.672 37.792 163.12 38.272C163.6 38.752 164.4 38.992 165.52 38.992V40C164.912 39.968 164 39.936 162.784 39.904C161.568 39.84 160.368 39.808 159.184 39.808C157.968 39.808 156.768 39.84 155.584 39.904C154.432 39.936 153.552 39.968 152.944 40V38.992C153.904 38.992 154.576 38.752 154.96 38.272C155.344 37.792 155.536 36.88 155.536 35.536V20.608C155.536 19.808 155.456 19.12 155.296 18.544C155.136 17.936 154.848 17.472 154.432 17.152C154.016 16.8 153.392 16.624 152.56 16.624C151.696 16.624 150.896 16.864 150.16 17.344C149.456 17.824 148.88 18.496 148.432 19.36C148.016 20.192 147.808 21.136 147.808 22.192V35.536C147.808 36.88 148 37.792 148.384 38.272C148.8 38.752 149.472 38.992 150.4 38.992V40C149.824 39.968 148.976 39.936 147.856 39.904C146.768 39.84 145.632 39.808 144.448 39.808C143.232 39.808 141.984 39.84 140.704 39.904C139.424 39.936 138.464 39.968 137.824 40V38.992C138.944 38.992 139.728 38.752 140.176 38.272C140.656 37.792 140.896 36.88 140.896 35.536V20.416C140.896 18.976 140.672 17.92 140.224 17.248C139.808 16.544 139.008 16.192 137.824 16.192V15.184C138.848 15.28 139.84 15.328 140.8 15.328C142.144 15.328 143.392 15.28 144.544 15.184C145.728 15.056 146.816 14.88 147.808 14.656V18.976C148.608 17.344 149.696 16.192 151.072 15.52C152.448 14.848 153.984 14.512 155.68 14.512Z" fill="#141414"/>
<path d="M190.924 2.41602V34.72C190.924 36.16 191.148 37.232 191.596 37.936C192.044 38.608 192.844 38.944 193.996 38.944V39.952C193.004 39.856 192.012 39.808 191.02 39.808C189.676 39.808 188.412 39.856 187.228 39.952C186.076 40.048 185.004 40.224 184.012 40.48V8.17602C184.012 6.73602 183.788 5.68002 183.34 5.00802C182.924 4.30402 182.124 3.95202 180.94 3.95202V2.94402C181.964 3.04002 182.956 3.08802 183.916 3.08802C185.228 3.08802 186.476 3.04002 187.66 2.94402C188.844 2.81602 189.932 2.64002 190.924 2.41602ZM178.684 14.512C180.092 14.512 181.324 14.752 182.38 15.232C183.468 15.68 184.316 16.448 184.924 17.536L184.348 18.064C183.932 17.296 183.372 16.752 182.668 16.432C181.996 16.08 181.276 15.904 180.508 15.904C178.876 15.904 177.58 16.864 176.62 18.784C175.66 20.672 175.196 23.6 175.228 27.568C175.228 30.288 175.404 32.464 175.756 34.096C176.14 35.696 176.668 36.848 177.34 37.552C178.044 38.256 178.844 38.608 179.74 38.608C180.828 38.608 181.804 38.176 182.668 37.312C183.532 36.448 183.996 35.28 184.06 33.808L184.3 35.488C183.82 37.184 183.036 38.48 181.948 39.376C180.892 40.24 179.5 40.672 177.772 40.672C175.884 40.672 174.188 40.208 172.684 39.28C171.212 38.352 170.06 36.928 169.228 35.008C168.396 33.056 167.98 30.544 167.98 27.472C167.98 24.56 168.444 22.16 169.372 20.272C170.3 18.352 171.564 16.912 173.164 15.952C174.796 14.992 176.636 14.512 178.684 14.512Z" fill="#141414"/>
<path d="M212.508 14.512C213.532 14.512 214.364 14.736 215.004 15.184C215.644 15.6 216.108 16.144 216.396 16.816C216.716 17.488 216.876 18.192 216.876 18.928C216.876 20.112 216.524 21.088 215.82 21.856C215.148 22.592 214.252 22.96 213.132 22.96C212.012 22.96 211.132 22.688 210.492 22.144C209.884 21.568 209.58 20.816 209.58 19.888C209.58 18.992 209.772 18.256 210.156 17.68C210.572 17.072 211.084 16.56 211.692 16.144C211.244 16.016 210.796 16.032 210.348 16.192C209.74 16.288 209.164 16.544 208.62 16.96C208.076 17.344 207.612 17.84 207.228 18.448C206.844 19.024 206.54 19.664 206.316 20.368C206.092 21.04 205.98 21.696 205.98 22.336V35.056C205.98 36.592 206.348 37.632 207.084 38.176C207.852 38.72 208.988 38.992 210.492 38.992V40C209.756 39.968 208.684 39.936 207.276 39.904C205.868 39.84 204.396 39.808 202.86 39.808C201.58 39.808 200.284 39.84 198.972 39.904C197.66 39.936 196.668 39.968 195.996 40V38.992C197.116 38.992 197.9 38.752 198.348 38.272C198.828 37.792 199.068 36.88 199.068 35.536V20.416C199.068 18.976 198.844 17.92 198.396 17.248C197.98 16.544 197.18 16.192 195.996 16.192V15.184C197.02 15.28 198.012 15.328 198.972 15.328C200.316 15.328 201.564 15.28 202.716 15.184C203.9 15.056 204.988 14.88 205.98 14.656V19.12C206.364 18.256 206.876 17.472 207.516 16.768C208.156 16.064 208.892 15.52 209.724 15.136C210.556 14.72 211.484 14.512 212.508 14.512Z" fill="#141414"/>
<path d="M230.13 14.512C232.946 14.512 235.154 15.344 236.754 17.008C238.354 18.672 239.154 21.392 239.154 25.168H223.362L223.266 24.256H233.106C233.138 22.688 233.042 21.248 232.818 19.936C232.594 18.592 232.242 17.52 231.762 16.72C231.282 15.92 230.642 15.52 229.842 15.52C228.722 15.52 227.762 16.224 226.962 17.632C226.194 19.04 225.73 21.376 225.57 24.64L225.714 24.928C225.682 25.312 225.65 25.712 225.618 26.128C225.618 26.544 225.618 26.976 225.618 27.424C225.618 29.632 225.922 31.424 226.53 32.8C227.17 34.176 227.97 35.184 228.93 35.824C229.89 36.432 230.866 36.736 231.858 36.736C232.53 36.736 233.218 36.64 233.922 36.448C234.658 36.224 235.394 35.84 236.13 35.296C236.866 34.72 237.554 33.92 238.194 32.896L239.058 33.184C238.674 34.4 238.066 35.584 237.234 36.736C236.402 37.888 235.346 38.832 234.066 39.568C232.786 40.304 231.25 40.672 229.458 40.672C227.282 40.672 225.362 40.208 223.698 39.28C222.034 38.352 220.722 36.944 219.762 35.056C218.834 33.168 218.37 30.768 218.37 27.856C218.37 24.88 218.866 22.4 219.858 20.416C220.882 18.432 222.274 16.96 224.034 16C225.826 15.008 227.858 14.512 230.13 14.512ZM235.074 0.784018C235.618 1.20002 235.906 1.77602 235.938 2.51202C235.97 3.24802 235.73 3.93602 235.218 4.57602C234.706 5.21602 234.082 5.79202 233.346 6.30402C232.61 6.81602 231.73 7.44002 230.706 8.17602C229.714 8.91202 228.514 9.93602 227.106 11.248L226.578 10.816C227.538 9.08802 228.242 7.64802 228.69 6.49602C229.138 5.31202 229.522 4.30402 229.842 3.47202C230.162 2.64002 230.594 1.92002 231.138 1.31202C231.618 0.672017 232.242 0.304017 233.01 0.208017C233.81 0.0800165 234.498 0.272017 235.074 0.784018Z" fill="#141414"/>
</svg>
